<svg width="1200" height="900" viewBox="0 0 1200 900" fill="none" xmlns="http://www.w3.org/2000/svg">
<rect width="1200" height="900" rx="36" fill="#111827"/>
<rect x="90" y="96" width="1020" height="708" rx="28" fill="#0B0F14" stroke="#1F2937" stroke-width="4"/>
<rect x="144" y="168" width="264" height="264" rx="24" fill="#22C7A9" fill-opacity="0.12"/>
<path d="M287.25 247C253.137 247 225.5 274.637 225.5 308.75C225.5 342.863 253.137 370.5 287.25 370.5C321.363 370.5 349 342.863 349 308.75C349 274.637 321.363 247 287.25 247ZM306.676 347.5L285.5 327.153L264.324 347.5L268.681 318.762L247.5 299.347L276.774 294.519L285.5 268.5L294.226 294.519L323.5 299.347L302.319 318.762L306.676 347.5Z" fill="#22C7A9"/>
<rect x="456" y="188" width="426" height="34" rx="17" fill="#E5E7EB"/>
<rect x="456" y="248" width="284" height="22" rx="11" fill="#9CA3AF"/>
<rect x="456" y="320" width="112" height="40" rx="20" fill="#22C7A9" fill-opacity="0.18"/>
<rect x="592" y="320" width="112" height="40" rx="20" fill="#EF4444" fill-opacity="0.14"/>
<rect x="144" y="506" width="912" height="2" fill="#1F2937"/>
<rect x="144" y="564" width="192" height="18" rx="9" fill="#9CA3AF"/>
<rect x="144" y="610" width="148" height="46" rx="16" fill="#22C7A9"/>
<rect x="818" y="560" width="238" height="24" rx="12" fill="#9CA3AF"/>
<rect x="900" y="614" width="156" height="48" rx="16" fill="#111827" stroke="#22C7A9" stroke-width="3"/>
<path d="M609.084 683V728H591.87V683H574V669H627V683H609.084Z" fill="#E5E7EB"/>
</svg>
